<svg class="rich-terminal" viewBox="0 0 1238 635.5999999999999" xmlns="http://www.w3.org/2000/svg">
    <!-- Generated with Rich https://www.textualize.io -->
    <style>

    @font-face {
        font-family: "Fira Code";
        src: local("FiraCode-Regular"),
                url("https://cdnjs.cloudflare.com/ajax/libs/firacode/6.2.0/woff2/FiraCode-Regular.woff2") format("woff2"),
                url("https://cdnjs.cloudflare.com/ajax/libs/firacode/6.2.0/woff/FiraCode-Regular.woff") format("woff");
        font-style: normal;
        font-weight: 400;
    }
    @font-face {
        font-family: "Fira Code";
        src: local("FiraCode-Bold"),
                url("https://cdnjs.cloudflare.com/ajax/libs/firacode/6.2.0/woff2/FiraCode-Bold.woff2") format("woff2"),
                url("https://cdnjs.cloudflare.com/ajax/libs/firacode/6.2.0/woff/FiraCode-Bold.woff") format("woff");
        font-style: bold;
        font-weight: 700;
    }

    .terminal-316782563-matrix {
        font-family: Fira Code, monospace;
        font-size: 20px;
        line-height: 24.4px;
        font-variant-east-asian: full-width;
    }

    .terminal-316782563-title {
        font-size: 18px;
        font-weight: bold;
        font-family: arial;
    }

    .terminal-316782563-r1 { fill: #656565 }
.terminal-316782563-r2 { fill: #c5c8c6 }
.terminal-316782563-r3 { fill: #b0b0b0;font-weight: bold }
.terminal-316782563-r4 { fill: #a5a5a5 }
.terminal-316782563-r5 { fill: #313131 }
.terminal-316782563-r6 { fill: #e0e0e0 }
.terminal-316782563-r7 { fill: #282828 }
.terminal-316782563-r8 { fill: #000000 }
.terminal-316782563-r9 { fill: #e0e0e0;font-weight: bold }
.terminal-316782563-r10 { fill: #121212 }
.terminal-316782563-r11 { fill: #a9a9a9 }
.terminal-316782563-r12 { fill: #eaeaea;font-weight: bold }
.terminal-316782563-r13 { fill: #3a3a3a }
.terminal-316782563-r14 { fill: #2d2d2d }
.terminal-316782563-r15 { fill: #0d0d0d }
.terminal-316782563-r16 { fill: #aaaaaa }
    </style>

    <defs>
    <clipPath id="terminal-316782563-clip-terminal">
      <rect x="0" y="0" width="1219.0" height="584.5999999999999" />
    </clipPath>
    <clipPath id="terminal-316782563-line-0">
    <rect x="0" y="1.5" width="1220" height="24.65"/>
            </clipPath>
<clipPath id="terminal-316782563-line-1">
    <rect x="0" y="25.9" width="1220" height="24.65"/>
            </clipPath>
<clipPath id="terminal-316782563-line-2">
    <rect x="0" y="50.3" width="1220" height="24.65"/>
            </clipPath>
<clipPath id="terminal-316782563-line-3">
    <rect x="0" y="74.7" width="1220" height="24.65"/>
            </clipPath>
<clipPath id="terminal-316782563-line-4">
    <rect x="0" y="99.1" width="1220" height="24.65"/>
            </clipPath>
<clipPath id="terminal-316782563-line-5">
    <rect x="0" y="123.5" width="1220" height="24.65"/>
            </clipPath>
<clipPath id="terminal-316782563-line-6">
    <rect x="0" y="147.9" width="1220" height="24.65"/>
            </clipPath>
<clipPath id="terminal-316782563-line-7">
    <rect x="0" y="172.3" width="1220" height="24.65"/>
            </clipPath>
<clipPath id="terminal-316782563-line-8">
    <rect x="0" y="196.7" width="1220" height="24.65"/>
            </clipPath>
<clipPath id="terminal-316782563-line-9">
    <rect x="0" y="221.1" width="1220" height="24.65"/>
            </clipPath>
<clipPath id="terminal-316782563-line-10">
    <rect x="0" y="245.5" width="1220" height="24.65"/>
            </clipPath>
<clipPath id="terminal-316782563-line-11">
    <rect x="0" y="269.9" width="1220" height="24.65"/>
            </clipPath>
<clipPath id="terminal-316782563-line-12">
    <rect x="0" y="294.3" width="1220" height="24.65"/>
            </clipPath>
<clipPath id="terminal-316782563-line-13">
    <rect x="0" y="318.7" width="1220" height="24.65"/>
            </clipPath>
<clipPath id="terminal-316782563-line-14">
    <rect x="0" y="343.1" width="1220" height="24.65"/>
            </clipPath>
<clipPath id="terminal-316782563-line-15">
    <rect x="0" y="367.5" width="1220" height="24.65"/>
            </clipPath>
<clipPath id="terminal-316782563-line-16">
    <rect x="0" y="391.9" width="1220" height="24.65"/>
            </clipPath>
<clipPath id="terminal-316782563-line-17">
    <rect x="0" y="416.3" width="1220" height="24.65"/>
            </clipPath>
<clipPath id="terminal-316782563-line-18">
    <rect x="0" y="440.7" width="1220" height="24.65"/>
            </clipPath>
<clipPath id="terminal-316782563-line-19">
    <rect x="0" y="465.1" width="1220" height="24.65"/>
            </clipPath>
<clipPath id="terminal-316782563-line-20">
    <rect x="0" y="489.5" width="1220" height="24.65"/>
            </clipPath>
<clipPath id="terminal-316782563-line-21">
    <rect x="0" y="513.9" width="1220" height="24.65"/>
            </clipPath>
<clipPath id="terminal-316782563-line-22">
    <rect x="0" y="538.3" width="1220" height="24.65"/>
            </clipPath>
    </defs>

    <rect fill="#292929" stroke="rgba(255,255,255,0.35)" stroke-width="1" x="1" y="1" width="1236" height="633.6" rx="8"/><text class="terminal-316782563-title" fill="#c5c8c6" text-anchor="middle" x="618" y="27">Harness</text>
            <g transform="translate(26,22)">
            <circle cx="0" cy="0" r="7" fill="#ff5f57"/>
            <circle cx="22" cy="0" r="7" fill="#febc2e"/>
            <circle cx="44" cy="0" r="7" fill="#28c840"/>
            </g>
        
    <g transform="translate(9, 41)" clip-path="url(#terminal-316782563-clip-terminal)">
    <rect fill="#1e1e1e" x="0" y="1.5" width="12.2" height="24.65" shape-rendering="crispEdges"/><rect fill="#1e1e1e" x="12.2" y="1.5" width="1073.6" height="24.65" shape-rendering="crispEdges"/><rect fill="#1e1e1e" x="1085.8" y="1.5" width="12.2" height="24.65" shape-rendering="crispEdges"/><rect fill="#121212" x="1098" y="1.5" width="122" height="24.65" shape-rendering="crispEdges"/><rect fill="#1e1e1e" x="0" y="25.9" width="12.2" height="24.65" shape-rendering="crispEdges"/><rect fill="#1e1e1e" x="12.2" y="25.9" width="1073.6" height="24.65" shape-rendering="crispEdges"/><rect fill="#1e1e1e" x="1085.8" y="25.9" width="12.2" height="24.65" shape-rendering="crispEdges"/><rect fill="#121212" x="1098" y="25.9" width="122" height="24.65" shape-rendering="crispEdges"/><rect fill="#1e1e1e" x="0" y="50.3" width="12.2" height="24.65" shape-rendering="crispEdges"/><rect fill="#1e1e1e" x="12.2" y="50.3" width="24.4" height="24.65" shape-rendering="crispEdges"/><rect fill="#1e1e1e" x="36.6" y="50.3" width="451.4" height="24.65" shape-rendering="crispEdges"/><rect fill="#1e1e1e" x="488" y="50.3" width="573.4" height="24.65" shape-rendering="crispEdges"/><rect fill="#1e1e1e" x="1061.4" y="50.3" width="24.4" height="24.65" shape-rendering="crispEdges"/><rect fill="#1e1e1e" x="1085.8" y="50.3" width="12.2" height="24.65" shape-rendering="crispEdges"/><rect fill="#121212" x="1098" y="50.3" width="122" height="24.65" shape-rendering="crispEdges"/><rect fill="#1e1e1e" x="0" y="74.7" width="12.2" height="24.65" shape-rendering="crispEdges"/><rect fill="#1e1e1e" x="12.2" y="74.7" width="24.4" height="24.65" shape-rendering="crispEdges"/><rect fill="#1e1e1e" x="36.6" y="74.7" width="951.6" height="24.65" shape-rendering="crispEdges"/><rect fill="#1e1e1e" x="988.2" y="74.7" width="73.2" height="24.65" shape-rendering="crispEdges"/><rect fill="#1e1e1e" x="1061.4" y="74.7" width="24.4" height="24.65" shape-rendering="crispEdges"/><rect fill="#1e1e1e" x="1085.8" y="74.7" width="12.2" height="24.65" shape-rendering="crispEdges"/><rect fill="#121212" x="1098" y="74.7" width="122" height="24.65" shape-rendering="crispEdges"/><rect fill="#1e1e1e" x="0" y="99.1" width="12.2" height="24.65" shape-rendering="crispEdges"/><rect fill="#1e1e1e" x="12.2" y="99.1" width="24.4" height="24.65" shape-rendering="crispEdges"/><rect fill="#1e1e1e" x="36.6" y="99.1" width="12.2" height="24.65" shape-rendering="crispEdges"/><rect fill="#1e1e1e" x="48.8" y="99.1" width="97.6" height="24.65" shape-rendering="crispEdges"/><rect fill="#1e1e1e" x="146.4" y="99.1" width="12.2" height="24.65" shape-rendering="crispEdges"/><rect fill="#1e1e1e" x="158.6" y="99.1" width="12.2" height="24.65" shape-rendering="crispEdges"/><rect fill="#1e1e1e" x="170.8" y="99.1" width="183" height="24.65" shape-rendering="crispEdges"/><rect fill="#1e1e1e" x="353.8" y="99.1" width="12.2" height="24.65" shape-rendering="crispEdges"/><rect fill="#1e1e1e" x="366" y="99.1" width="695.4" height="24.65" shape-rendering="crispEdges"/><rect fill="#1e1e1e" x="1061.4" y="99.1" width="24.4" height="24.65" shape-rendering="crispEdges"/><rect fill="#1e1e1e" x="1085.8" y="99.1" width="12.2" height="24.65" shape-rendering="crispEdges"/><rect fill="#121212" x="1098" y="99.1" width="122" height="24.65" shape-rendering="crispEdges"/><rect fill="#1e1e1e" x="0" y="123.5" width="12.2" height="24.65" shape-rendering="crispEdges"/><rect fill="#1e1e1e" x="12.2" y="123.5" width="24.4" height="24.65" shape-rendering="crispEdges"/><rect fill="#1e1e1e" x="36.6" y="123.5" width="12.2" height="24.65" shape-rendering="crispEdges"/><rect fill="#1e1e1e" x="48.8" y="123.5" width="97.6" height="24.65" shape-rendering="crispEdges"/><rect fill="#1e1e1e" x="146.4" y="123.5" width="12.2" height="24.65" shape-rendering="crispEdges"/><rect fill="#1e1e1e" x="158.6" y="123.5" width="902.8" height="24.65" shape-rendering="crispEdges"/><rect fill="#1e1e1e" x="1061.4" y="123.5" width="24.4" height="24.65" shape-rendering="crispEdges"/><rect fill="#1e1e1e" x="1085.8" y="123.5" width="12.2" height="24.65" shape-rendering="crispEdges"/><rect fill="#121212" x="1098" y="123.5" width="122" height="24.65" shape-rendering="crispEdges"/><rect fill="#1e1e1e" x="0" y="147.9" width="12.2" height="24.65" shape-rendering="crispEdges"/><rect fill="#1e1e1e" x="12.2" y="147.9" width="24.4" height="24.65" shape-rendering="crispEdges"/><rect fill="#1e1e1e" x="36.6" y="147.9" width="695.4" height="24.65" shape-rendering="crispEdges"/><rect fill="#1e1e1e" x="732" y="147.9" width="305" height="24.65" shape-rendering="crispEdges"/><rect fill="#000000" x="1037" y="147.9" width="24.4" height="24.65" shape-rendering="crispEdges"/><rect fill="#1e1e1e" x="1061.4" y="147.9" width="24.4" height="24.65" shape-rendering="crispEdges"/><rect fill="#1e1e1e" x="1085.8" y="147.9" width="12.2" height="24.65" shape-rendering="crispEdges"/><rect fill="#121212" x="1098" y="147.9" width="122" height="24.65" shape-rendering="crispEdges"/><rect fill="#1e1e1e" x="0" y="172.3" width="12.2" height="24.65" shape-rendering="crispEdges"/><rect fill="#1e1e1e" x="12.2" y="172.3" width="24.4" height="24.65" shape-rendering="crispEdges"/><rect fill="#1e1e1e" x="36.6" y="172.3" width="988.2" height="24.65" shape-rendering="crispEdges"/><rect fill="#1e1e1e" x="1024.8" y="172.3" width="12.2" height="24.65" shape-rendering="crispEdges"/><rect fill="#000000" x="1037" y="172.3" width="24.4" height="24.65" shape-rendering="crispEdges"/><rect fill="#1e1e1e" x="1061.4" y="172.3" width="24.4" height="24.65" shape-rendering="crispEdges"/><rect fill="#1e1e1e" x="1085.8" y="172.3" width="12.2" height="24.65" shape-rendering="crispEdges"/><rect fill="#121212" x="1098" y="172.3" width="122" height="24.65" shape-rendering="crispEdges"/><rect fill="#1e1e1e" x="0" y="196.7" width="12.2" height="24.65" shape-rendering="crispEdges"/><rect fill="#1e1e1e" x="12.2" y="196.7" width="24.4" height="24.65" shape-rendering="crispEdges"/><rect fill="#1e1e1e" x="36.6" y="196.7" width="353.8" height="24.65" shape-rendering="crispEdges"/><rect fill="#1e1e1e" x="390.4" y="196.7" width="646.6" height="24.65" shape-rendering="crispEdges"/><rect fill="#000000" x="1037" y="196.7" width="24.4" height="24.65" shape-rendering="crispEdges"/><rect fill="#1e1e1e" x="1061.4" y="196.7" width="24.4" height="24.65" shape-rendering="crispEdges"/><rect fill="#1e1e1e" x="1085.8" y="196.7" width="12.2" height="24.65" shape-rendering="crispEdges"/><rect fill="#121212" x="1098" y="196.7" width="122" height="24.65" shape-rendering="crispEdges"/><rect fill="#1e1e1e" x="0" y="221.1" width="12.2" height="24.65" shape-rendering="crispEdges"/><rect fill="#1e1e1e" x="12.2" y="221.1" width="24.4" height="24.65" shape-rendering="crispEdges"/><rect fill="#1e1e1e" x="36.6" y="221.1" width="1000.4" height="24.65" shape-rendering="crispEdges"/><rect fill="#282828" x="1037" y="221.1" width="24.4" height="24.65" shape-rendering="crispEdges"/><rect fill="#1e1e1e" x="1061.4" y="221.1" width="24.4" height="24.65" shape-rendering="crispEdges"/><rect fill="#1e1e1e" x="1085.8" y="221.1" width="12.2" height="24.65" shape-rendering="crispEdges"/><rect fill="#121212" x="1098" y="221.1" width="122" height="24.65" shape-rendering="crispEdges"/><rect fill="#1e1e1e" x="0" y="245.5" width="12.2" height="24.65" shape-rendering="crispEdges"/><rect fill="#1e1e1e" x="12.2" y="245.5" width="24.4" height="24.65" shape-rendering="crispEdges"/><rect fill="#1e1e1e" x="36.6" y="245.5" width="195.2" height="24.65" shape-rendering="crispEdges"/><rect fill="#1e1e1e" x="231.8" y="245.5" width="12.2" height="24.65" shape-rendering="crispEdges"/><rect fill="#262626" x="244" y="245.5" width="12.2" height="24.65" shape-rendering="crispEdges"/><rect fill="#262626" x="256.2" y="245.5" width="24.4" height="24.65" shape-rendering="crispEdges"/><rect fill="#262626" x="280.6" y="245.5" width="36.6" height="24.65" shape-rendering="crispEdges"/><rect fill="#e0e0e0" x="317.2" y="245.5" width="12.2" height="24.65" shape-rendering="crispEdges"/><rect fill="#262626" x="329.4" y="245.5" width="683.2" height="24.65" shape-rendering="crispEdges"/><rect fill="#262626" x="1012.6" y="245.5" width="24.4" height="24.65" shape-rendering="crispEdges"/><rect fill="#000000" x="1037" y="245.5" width="24.4" height="24.65" shape-rendering="crispEdges"/><rect fill="#1e1e1e" x="1061.4" y="245.5" width="24.4" height="24.65" shape-rendering="crispEdges"/><rect fill="#1e1e1e" x="1085.8" y="245.5" width="12.2" height="24.65" shape-rendering="crispEdges"/><rect fill="#121212" x="1098" y="245.5" width="122" height="24.65" shape-rendering="crispEdges"/><rect fill="#1e1e1e" x="0" y="269.9" width="12.2" height="24.65" shape-rendering="crispEdges"/><rect fill="#1e1e1e" x="12.2" y="269.9" width="24.4" height="24.65" shape-rendering="crispEdges"/><rect fill="#1e1e1e" x="36.6" y="269.9" width="1024.8" height="24.65" shape-rendering="crispEdges"/><rect fill="#1e1e1e" x="1061.4" y="269.9" width="24.4" height="24.65" shape-rendering="crispEdges"/><rect fill="#1e1e1e" x="1085.8" y="269.9" width="12.2" height="24.65" shape-rendering="crispEdges"/><rect fill="#121212" x="1098" y="269.9" width="122" height="24.65" shape-rendering="crispEdges"/><rect fill="#1e1e1e" x="0" y="294.3" width="12.2" height="24.65" shape-rendering="crispEdges"/><rect fill="#1e1e1e" x="12.2" y="294.3" width="24.4" height="24.65" shape-rendering="crispEdges"/><rect fill="#656565" x="36.6" y="294.3" width="195.2" height="24.65" shape-rendering="crispEdges"/><rect fill="#1e1e1e" x="231.8" y="294.3" width="829.6" height="24.65" shape-rendering="crispEdges"/><rect fill="#1e1e1e" x="1061.4" y="294.3" width="24.4" height="24.65" shape-rendering="crispEdges"/><rect fill="#1e1e1e" x="1085.8" y="294.3" width="12.2" height="24.65" shape-rendering="crispEdges"/><rect fill="#121212" x="1098" y="294.3" width="122" height="24.65" shape-rendering="crispEdges"/><rect fill="#1e1e1e" x="0" y="318.7" width="12.2" height="24.65" shape-rendering="crispEdges"/><rect fill="#1e1e1e" x="12.2" y="318.7" width="24.4" height="24.65" shape-rendering="crispEdges"/><rect fill="#656565" x="36.6" y="318.7" width="61" height="24.65" shape-rendering="crispEdges"/><rect fill="#656565" x="97.6" y="318.7" width="73.2" height="24.65" shape-rendering="crispEdges"/><rect fill="#656565" x="170.8" y="318.7" width="61" height="24.65" shape-rendering="crispEdges"/><rect fill="#1e1e1e" x="231.8" y="318.7" width="829.6" height="24.65" shape-rendering="crispEdges"/><rect fill="#1e1e1e" x="1061.4" y="318.7" width="24.4" height="24.65" shape-rendering="crispEdges"/><rect fill="#1e1e1e" x="1085.8" y="318.7" width="12.2" height="24.65" shape-rendering="crispEdges"/><rect fill="#121212" x="1098" y="318.7" width="122" height="24.65" shape-rendering="crispEdges"/><rect fill="#1e1e1e" x="0" y="343.1" width="12.2" height="24.65" shape-rendering="crispEdges"/><rect fill="#1e1e1e" x="12.2" y="343.1" width="24.4" height="24.65" shape-rendering="crispEdges"/><rect fill="#656565" x="36.6" y="343.1" width="195.2" height="24.65" shape-rendering="crispEdges"/><rect fill="#1e1e1e" x="231.8" y="343.1" width="829.6" height="24.65" shape-rendering="crispEdges"/><rect fill="#1e1e1e" x="1061.4" y="343.1" width="24.4" height="24.65" shape-rendering="crispEdges"/><rect fill="#1e1e1e" x="1085.8" y="343.1" width="12.2" height="24.65" shape-rendering="crispEdges"/><rect fill="#121212" x="1098" y="343.1" width="122" height="24.65" shape-rendering="crispEdges"/><rect fill="#1e1e1e" x="0" y="367.5" width="12.2" height="24.65" shape-rendering="crispEdges"/><rect fill="#1e1e1e" x="12.2" y="367.5" width="24.4" height="24.65" shape-rendering="crispEdges"/><rect fill="#1e1e1e" x="36.6" y="367.5" width="195.2" height="24.65" shape-rendering="crispEdges"/><rect fill="#1e1e1e" x="231.8" y="367.5" width="829.6" height="24.65" shape-rendering="crispEdges"/><rect fill="#1e1e1e" x="1061.4" y="367.5" width="24.4" height="24.65" shape-rendering="crispEdges"/><rect fill="#1e1e1e" x="1085.8" y="367.5" width="12.2" height="24.65" shape-rendering="crispEdges"/><rect fill="#121212" x="1098" y="367.5" width="122" height="24.65" shape-rendering="crispEdges"/><rect fill="#1e1e1e" x="0" y="391.9" width="12.2" height="24.65" shape-rendering="crispEdges"/><rect fill="#1e1e1e" x="12.2" y="391.9" width="24.4" height="24.65" shape-rendering="crispEdges"/><rect fill="#1e1e1e" x="36.6" y="391.9" width="48.8" height="24.65" shape-rendering="crispEdges"/><rect fill="#1e1e1e" x="85.4" y="391.9" width="97.6" height="24.65" shape-rendering="crispEdges"/><rect fill="#1e1e1e" x="183" y="391.9" width="48.8" height="24.65" shape-rendering="crispEdges"/><rect fill="#1e1e1e" x="231.8" y="391.9" width="829.6" height="24.65" shape-rendering="crispEdges"/><rect fill="#1e1e1e" x="1061.4" y="391.9" width="24.4" height="24.65" shape-rendering="crispEdges"/><rect fill="#1e1e1e" x="1085.8" y="391.9" width="12.2" height="24.65" shape-rendering="crispEdges"/><rect fill="#121212" x="1098" y="391.9" width="122" height="24.65" shape-rendering="crispEdges"/><rect fill="#1e1e1e" x="0" y="416.3" width="12.2" height="24.65" shape-rendering="crispEdges"/><rect fill="#1e1e1e" x="12.2" y="416.3" width="24.4" height="24.65" shape-rendering="crispEdges"/><rect fill="#1e1e1e" x="36.6" y="416.3" width="195.2" height="24.65" shape-rendering="crispEdges"/><rect fill="#1e1e1e" x="231.8" y="416.3" width="829.6" height="24.65" shape-rendering="crispEdges"/><rect fill="#1e1e1e" x="1061.4" y="416.3" width="24.4" height="24.65" shape-rendering="crispEdges"/><rect fill="#1e1e1e" x="1085.8" y="416.3" width="12.2" height="24.65" shape-rendering="crispEdges"/><rect fill="#121212" x="1098" y="416.3" width="122" height="24.65" shape-rendering="crispEdges"/><rect fill="#1e1e1e" x="0" y="440.7" width="12.2" height="24.65" shape-rendering="crispEdges"/><rect fill="#1e1e1e" x="12.2" y="440.7" width="24.4" height="24.65" shape-rendering="crispEdges"/><rect fill="#2d2d2d" x="36.6" y="440.7" width="12.2" height="24.65" shape-rendering="crispEdges"/><rect fill="#2d2d2d" x="48.8" y="440.7" width="976" height="24.65" shape-rendering="crispEdges"/><rect fill="#2d2d2d" x="1024.8" y="440.7" width="24.4" height="24.65" shape-rendering="crispEdges"/><rect fill="#2d2d2d" x="1049.2" y="440.7" width="12.2" height="24.65" shape-rendering="crispEdges"/><rect fill="#1e1e1e" x="1061.4" y="440.7" width="24.4" height="24.65" shape-rendering="crispEdges"/><rect fill="#1e1e1e" x="1085.8" y="440.7" width="12.2" height="24.65" shape-rendering="crispEdges"/><rect fill="#121212" x="1098" y="440.7" width="122" height="24.65" shape-rendering="crispEdges"/><rect fill="#1e1e1e" x="0" y="465.1" width="12.2" height="24.65" shape-rendering="crispEdges"/><rect fill="#1e1e1e" x="12.2" y="465.1" width="1073.6" height="24.65" shape-rendering="crispEdges"/><rect fill="#1e1e1e" x="1085.8" y="465.1" width="12.2" height="24.65" shape-rendering="crispEdges"/><rect fill="#121212" x="1098" y="465.1" width="122" height="24.65" shape-rendering="crispEdges"/><rect fill="#1e1e1e" x="0" y="489.5" width="12.2" height="24.65" shape-rendering="crispEdges"/><rect fill="#1e1e1e" x="12.2" y="489.5" width="1073.6" height="24.65" shape-rendering="crispEdges"/><rect fill="#1e1e1e" x="1085.8" y="489.5" width="12.2" height="24.65" shape-rendering="crispEdges"/><rect fill="#121212" x="1098" y="489.5" width="122" height="24.65" shape-rendering="crispEdges"/><rect fill="#121212" x="0" y="513.9" width="1220" height="24.65" shape-rendering="crispEdges"/><rect fill="#121212" x="0" y="538.3" width="1220" height="24.65" shape-rendering="crispEdges"/><rect fill="#121212" x="0" y="562.7" width="1220" height="24.65" shape-rendering="crispEdges"/>
    <g class="terminal-316782563-matrix">
    <text class="terminal-316782563-r1" x="0" y="20" textLength="12.2" clip-path="url(#terminal-316782563-line-0)">╭</text><text class="terminal-316782563-r1" x="12.2" y="20" textLength="1073.6" clip-path="url(#terminal-316782563-line-0)">────────────────────────────────────────────────────────────────────────────────────────</text><text class="terminal-316782563-r1" x="1085.8" y="20" textLength="12.2" clip-path="url(#terminal-316782563-line-0)">╮</text><text class="terminal-316782563-r2" x="1220" y="20" textLength="12.2" clip-path="url(#terminal-316782563-line-0)">
</text><text class="terminal-316782563-r1" x="0" y="44.4" textLength="12.2" clip-path="url(#terminal-316782563-line-1)">│</text><text class="terminal-316782563-r1" x="1085.8" y="44.4" textLength="12.2" clip-path="url(#terminal-316782563-line-1)">│</text><text class="terminal-316782563-r2" x="1220" y="44.4" textLength="12.2" clip-path="url(#terminal-316782563-line-1)">
</text><text class="terminal-316782563-r1" x="0" y="68.8" textLength="12.2" clip-path="url(#terminal-316782563-line-2)">│</text><text class="terminal-316782563-r3" x="36.6" y="68.8" textLength="451.4" clip-path="url(#terminal-316782563-line-2)">Edit&#160;Node:&#160;Wait&#160;Until&#160;(node_6bb526af)</text><text class="terminal-316782563-r1" x="1085.8" y="68.8" textLength="12.2" clip-path="url(#terminal-316782563-line-2)">│</text><text class="terminal-316782563-r2" x="1220" y="68.8" textLength="12.2" clip-path="url(#terminal-316782563-line-2)">
</text><text class="terminal-316782563-r1" x="0" y="93.2" textLength="12.2" clip-path="url(#terminal-316782563-line-3)">│</text><text class="terminal-316782563-r4" x="36.6" y="93.2" textLength="951.6" clip-path="url(#terminal-316782563-line-3)">1/2&#160;tabs&#160;|&#160;w/s&#160;move&#160;|&#160;e&#160;toggle/edit&#160;|&#160;ctrl+s&#160;save&#160;|&#160;esc&#160;cancel&#160;|&#160;ctrl+q&#160;revert</text><text class="terminal-316782563-r1" x="1085.8" y="93.2" textLength="12.2" clip-path="url(#terminal-316782563-line-3)">│</text><text class="terminal-316782563-r2" x="1220" y="93.2" textLength="12.2" clip-path="url(#terminal-316782563-line-3)">
</text><text class="terminal-316782563-r1" x="0" y="117.6" textLength="12.2" clip-path="url(#terminal-316782563-line-4)">│</text><text class="terminal-316782563-r3" x="48.8" y="117.6" textLength="97.6" clip-path="url(#terminal-316782563-line-4)">1&#160;-&#160;Wait</text><text class="terminal-316782563-r4" x="170.8" y="117.6" textLength="183" clip-path="url(#terminal-316782563-line-4)">2&#160;-&#160;Connections</text><text class="terminal-316782563-r1" x="1085.8" y="117.6" textLength="12.2" clip-path="url(#terminal-316782563-line-4)">│</text><text class="terminal-316782563-r2" x="1220" y="117.6" textLength="12.2" clip-path="url(#terminal-316782563-line-4)">
</text><text class="terminal-316782563-r1" x="0" y="142" textLength="12.2" clip-path="url(#terminal-316782563-line-5)">│</text><text class="terminal-316782563-r5" x="36.6" y="142" textLength="12.2" clip-path="url(#terminal-316782563-line-5)">╸</text><text class="terminal-316782563-r1" x="48.8" y="142" textLength="97.6" clip-path="url(#terminal-316782563-line-5)">━━━━━━━━</text><text class="terminal-316782563-r5" x="146.4" y="142" textLength="12.2" clip-path="url(#terminal-316782563-line-5)">╺</text><text class="terminal-316782563-r5" x="158.6" y="142" textLength="902.8" clip-path="url(#terminal-316782563-line-5)">━━━━━━━━━━━━━━━━━━━━━━━━━━━━━━━━━━━━━━━━━━━━━━━━━━━━━━━━━━━━━━━━━━━━━━━━━━</text><text class="terminal-316782563-r1" x="1085.8" y="142" textLength="12.2" clip-path="url(#terminal-316782563-line-5)">│</text><text class="terminal-316782563-r2" x="1220" y="142" textLength="12.2" clip-path="url(#terminal-316782563-line-5)">
</text><text class="terminal-316782563-r1" x="0" y="166.4" textLength="12.2" clip-path="url(#terminal-316782563-line-6)">│</text><text class="terminal-316782563-r4" x="36.6" y="166.4" textLength="695.4" clip-path="url(#terminal-316782563-line-6)">No&#160;targets&#160;selected:&#160;this&#160;node&#160;will&#160;continue&#160;immediately.</text><text class="terminal-316782563-r1" x="1085.8" y="166.4" textLength="12.2" clip-path="url(#terminal-316782563-line-6)">│</text><text class="terminal-316782563-r2" x="1220" y="166.4" textLength="12.2" clip-path="url(#terminal-316782563-line-6)">
</text><text class="terminal-316782563-r1" x="0" y="190.8" textLength="12.2" clip-path="url(#terminal-316782563-line-7)">│</text><text class="terminal-316782563-r4" x="36.6" y="190.8" textLength="988.2" clip-path="url(#terminal-316782563-line-7)">Targets&#160;must&#160;complete&#160;at&#160;least&#160;once&#160;in&#160;this&#160;run.&#160;A&#160;target&#160;that&#160;never&#160;executes&#160;can</text><text class="terminal-316782563-r1" x="1085.8" y="190.8" textLength="12.2" clip-path="url(#terminal-316782563-line-7)">│</text><text class="terminal-316782563-r2" x="1220" y="190.8" textLength="12.2" clip-path="url(#terminal-316782563-line-7)">
</text><text class="terminal-316782563-r1" x="0" y="215.2" textLength="12.2" clip-path="url(#terminal-316782563-line-8)">│</text><text class="terminal-316782563-r4" x="36.6" y="215.2" textLength="353.8" clip-path="url(#terminal-316782563-line-8)">wait&#160;forever&#160;at&#160;zero&#160;timeout.</text><text class="terminal-316782563-r7" x="1037" y="215.2" textLength="24.4" clip-path="url(#terminal-316782563-line-8)">▆▆</text><text class="terminal-316782563-r1" x="1085.8" y="215.2" textLength="12.2" clip-path="url(#terminal-316782563-line-8)">│</text><text class="terminal-316782563-r2" x="1220" y="215.2" textLength="12.2" clip-path="url(#terminal-316782563-line-8)">
</text><text class="terminal-316782563-r1" x="0" y="239.6" textLength="12.2" clip-path="url(#terminal-316782563-line-9)">│</text><text class="terminal-316782563-r8" x="1037" y="239.6" textLength="24.4" clip-path="url(#terminal-316782563-line-9)">▃▃</text><text class="terminal-316782563-r1" x="1085.8" y="239.6" textLength="12.2" clip-path="url(#terminal-316782563-line-9)">│</text><text class="terminal-316782563-r2" x="1220" y="239.6" textLength="12.2" clip-path="url(#terminal-316782563-line-9)">
</text><text class="terminal-316782563-r1" x="0" y="264" textLength="12.2" clip-path="url(#terminal-316782563-line-10)">│</text><text class="terminal-316782563-r9" x="36.6" y="264" textLength="195.2" clip-path="url(#terminal-316782563-line-10)">Timeout&#160;seconds:</text><text class="terminal-316782563-r1" x="244" y="264" textLength="12.2" clip-path="url(#terminal-316782563-line-10)">█</text><text class="terminal-316782563-r6" x="280.6" y="264" textLength="36.6" clip-path="url(#terminal-316782563-line-10)">0.0</text><text class="terminal-316782563-r1" x="1085.8" y="264" textLength="12.2" clip-path="url(#terminal-316782563-line-10)">│</text><text class="terminal-316782563-r2" x="1220" y="264" textLength="12.2" clip-path="url(#terminal-316782563-line-10)">
</text><text class="terminal-316782563-r1" x="0" y="288.4" textLength="12.2" clip-path="url(#terminal-316782563-line-11)">│</text><text class="terminal-316782563-r1" x="1085.8" y="288.4" textLength="12.2" clip-path="url(#terminal-316782563-line-11)">│</text><text class="terminal-316782563-r2" x="1220" y="288.4" textLength="12.2" clip-path="url(#terminal-316782563-line-11)">
</text><text class="terminal-316782563-r1" x="0" y="312.8" textLength="12.2" clip-path="url(#terminal-316782563-line-12)">│</text><text class="terminal-316782563-r11" x="36.6" y="312.8" textLength="195.2" clip-path="url(#terminal-316782563-line-12)">▔▔▔▔▔▔▔▔▔▔▔▔▔▔▔▔</text><text class="terminal-316782563-r1" x="1085.8" y="312.8" textLength="12.2" clip-path="url(#terminal-316782563-line-12)">│</text><text class="terminal-316782563-r2" x="1220" y="312.8" textLength="12.2" clip-path="url(#terminal-316782563-line-12)">
</text><text class="terminal-316782563-r1" x="0" y="337.2" textLength="12.2" clip-path="url(#terminal-316782563-line-13)">│</text><text class="terminal-316782563-r12" x="97.6" y="337.2" textLength="73.2" clip-path="url(#terminal-316782563-line-13)">&#160;Save&#160;</text><text class="terminal-316782563-r1" x="1085.8" y="337.2" textLength="12.2" clip-path="url(#terminal-316782563-line-13)">│</text><text class="terminal-316782563-r2" x="1220" y="337.2" textLength="12.2" clip-path="url(#terminal-316782563-line-13)">
</text><text class="terminal-316782563-r1" x="0" y="361.6" textLength="12.2" clip-path="url(#terminal-316782563-line-14)">│</text><text class="terminal-316782563-r13" x="36.6" y="361.6" textLength="195.2" clip-path="url(#terminal-316782563-line-14)">▁▁▁▁▁▁▁▁▁▁▁▁▁▁▁▁</text><text class="terminal-316782563-r1" x="1085.8" y="361.6" textLength="12.2" clip-path="url(#terminal-316782563-line-14)">│</text><text class="terminal-316782563-r2" x="1220" y="361.6" textLength="12.2" clip-path="url(#terminal-316782563-line-14)">
</text><text class="terminal-316782563-r1" x="0" y="386" textLength="12.2" clip-path="url(#terminal-316782563-line-15)">│</text><text class="terminal-316782563-r14" x="36.6" y="386" textLength="195.2" clip-path="url(#terminal-316782563-line-15)">▔▔▔▔▔▔▔▔▔▔▔▔▔▔▔▔</text><text class="terminal-316782563-r1" x="1085.8" y="386" textLength="12.2" clip-path="url(#terminal-316782563-line-15)">│</text><text class="terminal-316782563-r2" x="1220" y="386" textLength="12.2" clip-path="url(#terminal-316782563-line-15)">
</text><text class="terminal-316782563-r1" x="0" y="410.4" textLength="12.2" clip-path="url(#terminal-316782563-line-16)">│</text><text class="terminal-316782563-r9" x="85.4" y="410.4" textLength="97.6" clip-path="url(#terminal-316782563-line-16)">&#160;Cancel&#160;</text><text class="terminal-316782563-r1" x="1085.8" y="410.4" textLength="12.2" clip-path="url(#terminal-316782563-line-16)">│</text><text class="terminal-316782563-r2" x="1220" y="410.4" textLength="12.2" clip-path="url(#terminal-316782563-line-16)">
</text><text class="terminal-316782563-r1" x="0" y="434.8" textLength="12.2" clip-path="url(#terminal-316782563-line-17)">│</text><text class="terminal-316782563-r15" x="36.6" y="434.8" textLength="195.2" clip-path="url(#terminal-316782563-line-17)">▁▁▁▁▁▁▁▁▁▁▁▁▁▁▁▁</text><text class="terminal-316782563-r1" x="1085.8" y="434.8" textLength="12.2" clip-path="url(#terminal-316782563-line-17)">│</text><text class="terminal-316782563-r2" x="1220" y="434.8" textLength="12.2" clip-path="url(#terminal-316782563-line-17)">
</text><text class="terminal-316782563-r1" x="0" y="459.2" textLength="12.2" clip-path="url(#terminal-316782563-line-18)">│</text><text class="terminal-316782563-r16" x="48.8" y="459.2" textLength="976" clip-path="url(#terminal-316782563-line-18)">&#160;&#160;1/2&#160;tabs&#160;|&#160;w/s&#160;move&#160;|&#160;e&#160;toggle/edit&#160;|&#160;ctrl+s&#160;save&#160;|&#160;esc&#160;cancel&#160;|&#160;ctrl+q&#160;revert</text><text class="terminal-316782563-r1" x="1085.8" y="459.2" textLength="12.2" clip-path="url(#terminal-316782563-line-18)">│</text><text class="terminal-316782563-r2" x="1220" y="459.2" textLength="12.2" clip-path="url(#terminal-316782563-line-18)">
</text><text class="terminal-316782563-r1" x="0" y="483.6" textLength="12.2" clip-path="url(#terminal-316782563-line-19)">│</text><text class="terminal-316782563-r1" x="1085.8" y="483.6" textLength="12.2" clip-path="url(#terminal-316782563-line-19)">│</text><text class="terminal-316782563-r2" x="1220" y="483.6" textLength="12.2" clip-path="url(#terminal-316782563-line-19)">
</text><text class="terminal-316782563-r1" x="0" y="508" textLength="12.2" clip-path="url(#terminal-316782563-line-20)">╰</text><text class="terminal-316782563-r1" x="12.2" y="508" textLength="1073.6" clip-path="url(#terminal-316782563-line-20)">────────────────────────────────────────────────────────────────────────────────────────</text><text class="terminal-316782563-r1" x="1085.8" y="508" textLength="12.2" clip-path="url(#terminal-316782563-line-20)">╯</text><text class="terminal-316782563-r2" x="1220" y="508" textLength="12.2" clip-path="url(#terminal-316782563-line-20)">
</text><text class="terminal-316782563-r2" x="1220" y="532.4" textLength="12.2" clip-path="url(#terminal-316782563-line-21)">
</text><text class="terminal-316782563-r2" x="1220" y="556.8" textLength="12.2" clip-path="url(#terminal-316782563-line-22)">
</text>
    </g>
    </g>
</svg>
